<svg width="32" height="32" viewBox="0 0 32 32" fill="none" xmlns="http://www.w3.org/2000/svg">
<path d="M23.0001 2.88385C23.0001 2.58718 23.0881 2.29717 23.2529 2.0505C23.4177 1.80382 23.652 1.61156 23.9261 1.49803C24.2001 1.3845 24.5017 1.3548 24.7927 1.41267C25.0837 1.47055 25.351 1.61341 25.5607 1.82319C25.7705 2.03297 25.9134 2.30024 25.9713 2.59122C26.0291 2.88219 25.9994 3.18379 25.8859 3.45788C25.7724 3.73197 25.5801 3.96623 25.3334 4.13106C25.0868 4.29588 24.7968 4.38385 24.5001 4.38385C24.1023 4.38385 23.7207 4.22582 23.4394 3.94451C23.1581 3.66321 23.0001 3.28168 23.0001 2.88385ZM20.5151 9.5376C21.4226 15.0689 21.0588 19.0076 19.4326 21.2451C19.0341 21.8079 18.5235 22.282 17.9327 22.6376C17.3419 22.9933 16.6839 23.2227 16.0001 23.3113V29.3839H18.0001C18.2653 29.3839 18.5197 29.4892 18.7072 29.6767C18.8947 29.8643 19.0001 30.1186 19.0001 30.3839C19.0001 30.6491 18.8947 30.9034 18.7072 31.091C18.5197 31.2785 18.2653 31.3839 18.0001 31.3839H12.0001C11.7349 31.3839 11.4805 31.2785 11.293 31.091C11.1054 30.9034 11.0001 30.6491 11.0001 30.3839C11.0001 30.1186 11.1054 29.8643 11.293 29.6767C11.4805 29.4892 11.7349 29.3839 12.0001 29.3839H14.0001V23.3113C13.3164 23.2222 12.6585 22.9926 12.0678 22.6371C11.4771 22.2815 10.9663 21.8076 10.5676 21.2451C8.94258 19.0076 8.57883 15.0689 9.48633 9.5376C9.90829 7.01266 10.5017 4.51939 11.2626 2.0751C11.3278 1.87418 11.455 1.69907 11.6259 1.57488C11.7968 1.4507 12.0026 1.38383 12.2138 1.38385H17.7876C17.9988 1.38383 18.2046 1.4507 18.3755 1.57488C18.5464 1.69907 18.6736 1.87418 18.7388 2.0751C19.4997 4.51939 20.0931 7.01266 20.5151 9.5376ZM11.7251 8.38385H18.2751C17.9001 6.43635 17.4351 4.6576 17.0526 3.38385H12.9488C12.5663 4.6576 12.1038 6.43635 11.7251 8.38385ZM18.6251 10.3839H11.3751C10.8138 14.1339 10.7326 18.0764 12.1813 20.0701C12.8288 20.9539 13.7501 21.3839 15.0001 21.3839C16.2501 21.3839 17.1726 20.9539 17.8151 20.0701C19.2626 18.0764 19.1826 14.1339 18.6251 10.3839ZM27.5001 5.38385C27.2034 5.38385 26.9134 5.47182 26.6667 5.63665C26.4201 5.80147 26.2278 6.03574 26.1143 6.30983C26.0007 6.58391 25.971 6.88551 26.0289 7.17649C26.0868 7.46746 26.2296 7.73473 26.4394 7.94451C26.6492 8.15429 26.9165 8.29715 27.2074 8.35503C27.4984 8.41291 27.8 8.3832 28.0741 8.26967C28.3482 8.15614 28.5825 7.96388 28.7473 7.71721C28.9121 7.47053 29.0001 7.18052 29.0001 6.88385C29.0001 6.48603 28.842 6.10449 28.5607 5.82319C28.2794 5.54189 27.8979 5.38385 27.5001 5.38385ZM24.5001 11.3839C24.2034 11.3839 23.9134 11.4718 23.6667 11.6366C23.4201 11.8015 23.2278 12.0357 23.1143 12.3098C23.0007 12.5839 22.971 12.8855 23.0289 13.1765C23.0868 13.4675 23.2296 13.7347 23.4394 13.9445C23.6492 14.1543 23.9165 14.2972 24.2074 14.355C24.4984 14.4129 24.8 14.3832 25.0741 14.2697C25.3482 14.1561 25.5825 13.9639 25.7473 13.7172C25.9121 13.4705 26.0001 13.1805 26.0001 12.8839C26.0001 12.486 25.842 12.1045 25.5607 11.8232C25.2794 11.5419 24.8979 11.3839 24.5001 11.3839Z" fill="#FAFAFA"/>
</svg>
